# xmcd
#
# Track frame offsets:
#	150
#	15721
#	31766
#	49510
#	67358
#	87739
#	104992
#	126900
#	150076
#	169297
#	188090
#	206253
#	223131
#	241425
#	258375
#
# Disc length: 3694 seconds
#
# Revision: 1
# Processed by: cddbd v1.5.2PL0 Copyright (c) Steve Scherf et al.
# Submitted via: audiograbber 1.83.01
#
DISCID=d90e6c0f
DTITLE=CARRIE UNDERWOOD - CB 90330
DYEAR=2008
DGENRE=kARAOKE
TTITLE0=BEFORE HE CHEATS
TTITLE1=FLAT ON THE FLOOR
TTITLE2=JESUS, TAKE THE WHEEL
TTITLE3=SO SMALL
TTITLE4=I TOLD YOU SO
TTITLE5=CRAZY
TTITLE6=WASTED
TTITLE7=JUST A DREAM
TTITLE8=LAST NAME
TTITLE9=DON'T FORGET TO REMEMBER
TTITLE10=SOME HEARTS
TTITLE11=THE MORE BOYS I MEET
TTITLE12=WE'RE YOUNG AND BEAUTIFUL
TTITLE13=ALL-AMERICAN GIRL
TTITLE14=INSIDE YOUR HEAVEN
EXTD=
EXTT0=
EXTT1=
EXTT2=
EXTT3=
EXTT4=
EXTT5=
EXTT6=
EXTT7=
EXTT8=
EXTT9=
EXTT10=
EXTT11=
EXTT12=
EXTT13=
EXTT14=
PLAYORDER=
